Patient4_TMGait_0pt8_01_left_30_EMG.mot
version=1
nRows=41
nColumns=33
inDegrees=no
endheader
time	1LAddLong	2LGlutMax	3LGlutMed	4LIliopsoas	5LSemiMemb	6LBicFemLong	7LRecFem	8LVastMed	9LVastLat	10LGasMed	11LTibAnt	12lTibPost	13LPeroneusLong	14LSol	15LExtDigLong	16LFlexDigLong	17RAddLong	18RGlutMax	19RGlutMed	20RIliopsoas	21RSemiMemb	22RBicFemLong	23RRecFem	24RVastMed	25RVastLat	26RGasMed	27RTibAnt	28RTibPost	29RPeroneusLong	30RSol	31RExtDigLong	32RFlexDigLong
33.357	-0.02121	1.1409	-0.36392	0.001984	-0.1001	-0.29327	0.55008	0.021515	-0.049591	-0.039368	0.00946	-0.006561	-0.014954	-0.96527	-0.50247	-0.17853	0.10788	-0.44769	-0.49377	-0.032349	-0.23117	0.059052	0.81772	-0.064697	0.003052	0.00946	0.26276	-0.001068	0.002441	-0.017548	-0.004425	-0.001221
33.358	-0.011444	1.0861	-0.26977	0.009308	-0.005188	-0.24475	0.47669	0.016174	0.15289	-0.038452	0.020599	-0.008087	-0.11047	-1.0098	-0.33295	-0.55161	0.028534	-0.36438	-0.38895	-0.003967	-0.21271	0.071411	0.82535	-0.11795	-0.006714	0.002289	0.30106	-0.002289	-0.10986	0.053558	-0.00351	-0.008392
33.359	-0.003357	1.0228	0.008087	0.032501	0.060425	-0.15961	0.52506	0.028687	0.26321	-0.067291	0.016937	0.000763	-0.052643	-0.91263	-0.029755	-0.060577	-0.021057	-0.2742	-0.19196	-0.018921	-0.19028	0.049133	0.85602	-0.050201	0.000305	0.004272	0.13992	-0.00061	-0.057373	0.057831	-0.003204	-0.012817
33.36	0.005035	0.93216	0.14786	0.015869	0.047913	-0.080719	0.5098	0.017242	0.23956	-0.081024	0.006714	0.005341	0.028381	-0.45685	0.16968	0.13641	-0.054779	-0.23987	-0.22476	0.015411	-0.18951	0.049286	0.8873	-0.059357	0.003357	-0.005188	-0.27222	-0.000916	-0.055084	0.16602	-0.001831	-0.019379
33.361	0.013123	0.81085	0.039063	0.013733	0.048218	-0.023651	0.19226	0.010223	0.010376	-0.050812	0.012054	0.003204	-0.006866	-0.39459	0.089417	-0.093842	-0.067291	-0.16724	-0.9964	0.076904	-0.20493	0.063324	0.81421	-0.019379	-0.001068	-0.005493	-0.87982	-0.00061	0.014954	0.31876	-0.003662	-0.010223
33.362	0.015106	0.81146	-0.19745	0.011292	0.026398	0.001984	0.11383	-0.011597	-0.44662	-0.049438	0.034943	0.008545	-0.042725	-0.31326	0.091095	-0.048981	-0.059052	-0.18402	-0.83313	0.055542	-0.17685	0.10788	0.69687	-0.018311	0.010986	-0.00946	-0.58411	-0.002289	-0.06958	0.401	0.000305	-0.023651
33.363	-0.005035	0.8609	-0.15106	0.0177	-0.009155	0.09491	0.2771	-0.017548	-1.0576	-0.050964	0.25436	0.021667	-0.092773	-0.14282	0.14358	0.005341	-0.054779	-0.16037	-0.33157	-0.16083	-0.13275	0.17899	0.75409	0.072479	0.007629	-0.009003	0.4126	0.005341	-0.069733	0.38055	0.005493	-0.020905
33.364	-0.02655	0.89661	0.20508	0.023956	-0.027008	0.13733	0.39108	-0.02243	-1.1353	-0.069885	0.33997	0.022736	-0.1358	-0.016022	0.26459	0.083008	-0.046997	-0.046234	-0.48675	-0.17609	-0.11795	0.10178	0.82016	0.12528	-0.008545	-0.002899	0.14725	0.002136	-0.0354	0.29556	-0.000916	-0.028992
33.365	-0.017548	0.86456	0.2507	0.020752	-0.04303	0.099182	0.21561	-0.013123	-0.83176	-0.055695	0.27115	0.024872	-0.066376	0.023956	0.47745	-0.37537	0.011749	0.054016	-0.63568	-0.25665	-0.096893	0.034485	0.86624	0.17242	-0.038757	-0.001068	-0.41107	0.002441	-0.035858	0.1683	-0.000458	-0.032959
33.366	-0.009308	0.79163	0.26459	-0.010986	-0.022125	0.075226	0.071259	0.006104	-0.55389	-0.014343	-0.10025	0.032043	0.007477	0.075378	0.55985	0.15747	0.050049	0.017395	-0.66208	-0.31738	-0.13031	0.034485	0.9372	0.02655	-0.070496	-0.011597	-0.69672	0.001984	-0.1207	0.10727	-0.005035	-0.040741
33.367	-0.00473	0.87631	0.36453	-0.027771	-0.018616	0.11429	0.083923	0.025024	-0.5011	0.013733	0.1236	0.049591	-0.080719	0.092163	0.61844	0.15411	0.044861	0.012054	-0.77621	-0.34271	-0.16846	-0.054321	1.1122	-0.033722	-0.12573	-0.014496	-0.63736	0.000305	-0.099487	0.10834	-0.006104	-0.035706
33.368	0.001221	0.96817	0.34653	0.009766	-0.04425	-0.019836	-0.046387	0.027008	-0.50339	-0.002747	0.34927	0.050812	-0.00885	0.16419	1.1504	0.074005	0.08316	0.18127	-0.79849	-0.32654	-0.17548	-0.08255	1.2486	-0.060272	-0.12573	-0.001526	-0.080261	0	0.04425	0.068817	-0.005493	-0.025024
33.369	-0.009308	1.0397	0.32623	0.023346	-0.11536	-0.16968	-0.1358	0.024719	-0.47058	-0.07431	0.30594	0.044098	0.13428	0.23499	0.087738	0.10971	0.077972	0.22247	-0.72388	-0.21332	-0.18738	-0.10239	1.2523	-0.066376	-0.11185	0.006409	0.7637	0.01297	0.14786	-0.054932	-0.002747	-0.029449
33.37	-0.020905	1.0732	0.1857	0.014801	-0.15518	-0.12543	-0.24826	0.018311	-0.37018	-0.026398	-0.35172	0.062103	0.062714	0.28992	0.26215	-0.28336	0.00351	0.23148	-0.6337	-0.048218	-0.18433	-0.10071	1.2308	-0.038147	-0.10803	0.010681	0.018463	0.004578	0.12192	0.040131	-0.002136	-0.02533
33.371	-0.000763	1.1824	0.14999	0.007324	-0.16052	0.007935	-0.39139	0.024261	-0.25986	-0.013428	-0.57617	0.068665	-0.033264	0.39948	-0.55359	0.23514	0.033875	0.25665	-0.68024	0.077362	-0.17303	-0.15305	1.14	-0.084686	-0.12299	0.001068	0.001068	0.002594	-0.066071	0.092163	-0.000305	-0.031891
33.372	0.014801	1.2526	0.16174	-0.007782	-0.084686	0.022736	-0.34515	0.01297	-0.22079	-0.032196	-0.23926	0.071869	-0.009003	0.34393	-0.45609	0.215	0.084991	0.35172	-0.63644	0.12894	-0.19409	-0.15808	0.98969	-0.14938	-0.087585	-0.00351	0.20218	0.008545	-0.085144	0.061951	0.000305	-0.022888
33.373	0.032043	1.4265	0.066833	-0.002136	0.018616	-0.077667	-0.20248	0.002594	-0.22507	-0.017548	0.00946	0.086975	0.020599	0.34058	-0.58655	0.1001	0.15747	0.42908	-0.80917	0.1503	-0.26718	-0.26291	0.86777	-0.24109	-0.087128	0.002441	0.16693	0.005341	-0.10498	0.074005	-0.008545	-0.027008
33.374	0.044098	1.4096	0.042725	-0.004425	0.094299	-0.054932	-0.15121	-0.012207	-0.13382	-0.032349	-0.11658	0.087738	0.16647	0.10635	-0.83145	-0.10574	0.17822	0.43732	-0.63065	0.17242	-0.33814	-0.30716	0.92956	-0.31448	-0.09079	-0.003052	-0.06485	0.007629	-0.069122	0.040588	-0.003052	-0.024414
33.375	0.044098	1.3979	-0.015259	0.007629	0.073395	0.055389	-0.077057	-0.026093	-0.05722	0.029755	-0.37949	0.098419	0.096741	-0.13123	-0.62912	0.3064	0.092163	0.50537	-0.29678	0.13001	-0.4039	-0.30502	0.9317	-0.27176	-0.084381	-0.010376	-0.046997	0.003357	-0.054626	0.069427	-0.002899	-0.027008
33.376	0.028687	1.2569	-0.10147	0.009766	0.029449	0.12985	-0.048065	-0.032959	0.057831	0.10056	-0.07309	0.11078	-0.10864	-0.061951	0.094757	0.049591	-0.001221	0.51163	-0.22125	0.086365	-0.35721	-0.25681	0.92819	-0.12192	-0.061646	-0.004883	0.10574	0.007477	-0.12756	0.059509	-0.008698	-0.030212
33.377	0.036163	1.254	-0.062408	0.010834	-0.020294	0.15243	-0.032806	-0.00351	-0.002747	0.05722	-0.079498	0.11108	-0.068359	0.24399	0.20462	-0.46539	-0.037689	0.6041	-0.40649	0.15305	-0.33691	-0.17227	0.86624	-0.020294	-0.037537	-0.005493	0.11887	0.003204	-0.11475	-0.034943	-0.009918	-0.03479
33.378	0.033875	1.2193	0.043488	0.012817	-0.033722	-0.084839	-0.045776	0.003967	-0.08255	0.014343	0.23407	0.13321	-0.022583	0.29633	0.37674	0.049744	-0.18005	0.62225	-0.93292	0.13199	-0.29266	-0.017548	0.71716	0.015106	-0.033722	-0.011749	-0.071564	0.007019	-0.078888	0.002441	-0.003662	-0.028381
33.379	0.028687	1.0664	0.10712	0.015869	-0.029144	-0.061188	-0.10742	0.016479	-0.13977	0.028992	0.27954	0.13458	-0.083923	0.26306	0.92895	0.20981	-0.19424	0.67291	-1.0442	0.012665	-0.24841	0.038757	0.74036	0.029602	-0.029297	-0.011292	0.10544	-0.005493	-0.096436	-0.005798	-0.002747	-0.034332
33.38	0.023193	0.93246	0.13901	0.019684	0.01358	-0.021667	-0.16327	0.023804	-0.20309	0.018311	0.081329	0.13702	-0.078125	0.094604	-0.081787	0.30594	-0.2327	0.70343	-1.2489	-0.05188	-0.17181	0.12665	0.81787	0.050354	-0.00351	-0.011292	0.52704	0.006561	-0.1831	-0.001526	0.000305	-0.033875
33.381	0.009308	0.82901	0.15671	-0.00824	-0.010223	0.068665	-0.17899	0.043335	-0.24002	0.030365	-0.12222	0.14755	0.050812	0.077667	-0.19669	0.20065	-0.21637	0.77866	-0.94345	-0.016327	-0.12909	0.1207	0.82214	0.17777	-0.000763	-0.001831	0.43167	0.00412	-0.096893	-0.087433	-0.004578	-0.034027
33.382	0.008392	0.75714	0.18555	-0.00885	-0.032806	0.15595	-0.33279	0.042114	-0.16876	0.06012	-0.14481	0.16159	0.046997	0.0383	-0.63232	-1.3031	-0.15015	0.85236	-0.92422	0.057373	-0.067596	0.094757	0.80414	0.24887	-0.00473	-0.002899	0.42893	0.000763	-0.051727	-0.10483	-0.002899	-0.03891
33.383	0.025024	0.60959	0.23315	-0.002747	-0.028229	0.22156	-0.39429	0.031281	-0.005951	0.11795	-0.13153	0.16098	0.056305	0.084534	-0.67535	-0.29495	-0.09903	0.91949	-0.18631	-0.015106	0.016479	0.1236	0.73837	0.22049	-0.004272	-0.012512	-0.070801	0.006866	-0.02121	-0.015564	-0.002899	-0.041504
33.384	0.028076	0.53055	0.25101	-0.000916	-0.027161	0.28732	-0.49103	-0.006866	0.1181	0.10925	-0.08728	0.16403	0.026703	-0.074005	-0.47073	0.56793	-0.025024	0.93491	0.18646	0.074463	-0.000305	0.13489	0.76035	0.22949	-0.005798	-0.01358	-0.16342	0.00473	-0.066528	0.025787	-0.002594	-0.041809
33.385	0.029602	0.42206	0.21072	0.011597	-0.025635	0.3093	-0.49149	-0.046234	0.18555	0.11765	-0.011902	0.18509	-0.041504	0.06012	-0.68024	1.2549	0.022888	1.0135	-0.51743	0.14008	-0.062866	0.10361	0.69336	0.20538	0.001678	-0.014496	-0.006409	0.006104	-0.057068	-0.054932	-0.000153	-0.039673
33.386	0.012207	0.22369	0.065765	-0.003357	-0.035095	0.22461	-0.38483	-0.049744	0.28458	0.13382	0.072937	0.17944	-0.089569	-0.1236	-0.26428	-0.48416	0.053101	1.0316	-1.144	0.088806	-0.11139	0.052032	0.62271	0.17258	-0.001526	-0.016479	0.062408	0.00473	-0.097351	-0.099335	0.000305	-0.037537
33.387	0.005646	0.018616	-0.17502	0.00351	-0.043488	-0.021362	-0.26093	-0.055847	0.18112	0.06134	0.026398	0.18692	-0.12604	-0.35446	0.015564	-0.054321	0.058899	1.0779	-1.2526	0.054474	-0.13001	0.018005	0.68298	0.20096	-0.024719	-0.005035	-0.042114	0.00824	-0.053864	-0.13321	-0.003357	-0.032043
33.388	0.000458	-0.18723	-0.27512	0.013733	-0.036774	-0.01358	-0.26703	-0.024109	0.062256	0.06134	-0.046234	0.21332	-0.087891	-0.30487	0.23224	0.39093	0.050812	1.0719	-1.4479	0.044403	-0.20248	-0.001831	0.90805	0.31265	-0.006561	-0.002899	-0.020599	0.001373	0.013733	-0.12421	-0.002747	-0.022278
33.389	-0.001526	-0.32745	-0.28809	0.001984	-0.048981	-0.11948	-0.2623	-0.015869	-0.002594	0.042725	-0.058289	0.22492	0.006714	-0.077515	0.27206	0.70679	0.073395	1.149	-1.1397	0.051117	-0.24963	-0.086365	1.0564	0.3125	-0.028687	-0.002289	0.14969	0.001526	0.011597	-0.12528	-0.001831	-0.021057
33.39	-0.002136	-0.60196	-0.34958	0.004578	-0.074768	-0.11093	-0.20538	-0.009918	0.033722	0.023956	0.001831	0.23346	0.054016	-0.076447	0.27557	-0.003052	0.03418	1.1159	-0.81345	0.026855	-0.28061	-0.11887	1.1226	0.19547	-0.029602	-0.014648	0.3038	-0.001526	-0.010529	-0.080109	-0.001221	-0.018616
33.391	-0.001831	-0.8699	-0.57205	0.0177	-0.081635	-0.032043	-0.19547	-0.004272	0.065918	0.06073	0.0354	0.2211	-0.006104	-0.13977	0.19165	-0.24017	0.013733	1.0899	-0.68222	0.0354	-0.24551	-0.026398	1.1673	0.10742	-0.036163	-0.011749	0.29984	0.001221	-0.059662	-0.054321	-0.000763	-0.008545
33.392	0.008545	-0.98709	-0.63232	0.001221	-0.044556	0.037842	-0.19165	-0.005951	0.081635	0.053406	0.21866	0.18585	-0.071869	-0.045776	0.1239	-1.2445	0.006409	1.088	-0.63095	-0.071106	-0.20996	0.064392	1.068	0.038757	-0.012817	-0.006256	0.009003	0.005188	-0.037537	-0.084534	0.004272	-0.017548
33.393	0.007019	-1.0217	-0.48599	0.013428	-0.020142	0.28458	-0.18295	0.007629	0.076141	0.076141	0.36743	0.15518	-0.083618	0.057678	0.11887	0.050049	0.00885	1.1307	-0.5098	-0.19104	-0.1886	0.079498	0.74554	0.003662	-0.007629	-0.006714	-0.25314	0.000305	-0.031586	-0.11505	0.006409	-0.015869
33.394	-0.003815	-0.99564	-0.3743	0.014343	-0.010071	0.48492	-0.15518	0.002289	0.092773	0.090332	0.24124	0.11536	-0.050812	0.08316	0.19073	-1.1891	0.073547	1.077	-0.42099	-0.20798	-0.16861	0.043793	0.61737	-0.096283	0	-0.003662	-0.11002	0.001678	-0.066528	-0.1297	-0.002441	-0.012207
33.395	-0.000763	-0.99167	-0.22308	-0.001373	-0.054474	0.30716	-0.14526	0.01236	0.11154	0.027313	-0.13565	0.075684	-0.058594	-0.028687	0.38834	1.3715	0.058746	1.0252	-0.43366	-0.2182	-0.15182	0.057373	0.69107	-0.19012	-0.014496	-0.009308	0.23178	-0.001526	-0.15472	-0.15106	-0.001526	-0.023804
33.396	-0.009918	-0.95566	-0.23575	-0.00061	-0.092468	0.000458	-0.14313	0.005798	0.11612	0.002747	-0.10696	0.050507	-0.093079	-0.13184	0.27695	0.84518	0.042877	1.0542	-0.61996	-0.11139	-0.14938	0.13046	0.71945	-0.24368	-0.023956	-0.003204	0.46081	0.000763	-0.25543	-0.17059	-0.004272	-0.021515
33.397	-0.00946	-0.8432	-0.16403	0.012207	-0.09552	-0.25909	-0.11322	0.003204	0.11932	0.011139	-0.10162	0.029449	-0.098877	-0.3978	0.15411	-0.097351	0.024109	1.158	-0.26581	-0.032043	-0.17883	0.14191	0.62164	-0.23422	0.000305	0.003204	0.16724	-0.001984	-0.121	-0.16754	-0.002136	-0.013885
